<svg width="570" height="558" viewBox="0 0 570 558" fill="none" xmlns="http://www.w3.org/2000/svg">
<path d="M388.694 405.149C387.519 405.644 385.914 406.894 385.694 408.149C385.254 410.679 384.619 415.139 386.694 416.649C397.544 424.549 415.129 430.054 426.194 437.649C433.014 442.329 440.419 450.774 445.694 457.149C450.519 462.984 456.279 471.389 459.694 478.149C463.824 486.329 470.694 506.649 470.694 506.649C470.694 506.649 467.809 507.619 466.694 507.149C462.969 505.589 458.984 501.544 455.194 500.149C453.084 499.369 449.689 499.109 447.694 500.149C445.774 501.149 444.289 504.069 443.694 506.149C443.314 507.479 443.584 509.824 444.694 510.649C453.784 517.399 466.639 525.449 476.694 530.649C480.119 532.419 486.659 536.554 489.194 533.649C497.479 524.139 503.034 507.559 507.194 495.649C508.529 491.824 507.194 482.149 507.194 482.149C507.194 482.149 499.004 480.009 496.694 482.149C491.969 486.529 486.694 501.149 486.694 501.149C486.694 501.149 475.704 474.564 469.194 464.149C462.864 454.019 452.804 441.434 444.194 433.149C436.754 425.989 425.079 418.409 416.194 413.149C410.294 409.659 401.774 406.064 395.194 404.149C393.299 403.599 390.514 404.384 388.694 405.149ZM285.694 139.149C283.864 141.414 283.159 145.784 283.694 148.649C284.429 152.604 287.499 157.274 289.694 160.649C291.434 163.324 294.099 166.794 296.694 168.649C300.514 171.379 306.084 174.764 310.694 175.649C317.324 176.919 326.754 177.674 333.194 175.649C340.654 173.299 349.724 167.244 355.194 161.649C356.979 159.824 355.894 155.599 355.194 153.149C353.754 148.109 351.624 141.109 348.194 137.149C343.559 131.799 335.689 125.974 329.194 123.149C324.919 121.289 318.339 121.799 313.694 122.149C310.284 122.404 305.619 123.374 302.694 125.149C297.049 128.579 289.849 134.009 285.694 139.149ZM326.694 134.649C326.694 134.649 331.729 135.229 333.194 136.649C337.049 140.389 341.294 146.344 343.694 151.149C344.564 152.894 344.994 156.194 343.694 157.649C340.779 160.909 335.254 163.524 331.194 165.149C329.794 165.709 326.194 164.649 326.194 164.649C326.194 164.649 329.139 157.069 329.194 153.649C329.289 147.899 326.694 134.649 326.694 134.649ZM314.694 132.649C315.939 132.339 318.694 134.149 318.694 134.149C318.694 134.149 315.729 138.864 315.694 141.149C315.579 148.389 318.194 165.149 318.194 165.149C318.194 165.149 308.124 163.609 304.694 161.149C300.869 158.404 296.019 153.284 295.194 148.649C294.594 145.279 298.049 140.819 300.694 138.649C304.229 135.749 310.259 133.759 314.694 132.649ZM388.194 1.14902C385.914 -0.0309773 381.624 0.454023 379.694 2.14902C361.449 18.184 342.189 45.359 322.194 59.149C314.869 64.199 301.544 63.034 292.694 62.149C290.154 61.894 288.429 57.884 287.194 55.649C278.954 40.734 270.614 19.349 261.194 5.14902C259.544 2.65902 254.289 0.664023 251.694 2.14902C245.789 5.52402 240.644 13.609 236.694 19.149C230.559 27.759 218.194 49.149 218.194 49.149C218.194 49.149 212.329 43.994 209.194 43.149C206.429 42.399 202.354 43.084 199.694 44.149C142.399 67.124 66.3587 98.659 9.69365 123.149C6.55365 124.504 1.58365 126.849 0.693649 130.149C-0.261351 133.674 2.51365 138.719 4.69365 141.649C20.9286 163.469 47.3286 189.054 61.6936 212.149C63.7486 215.454 58.0736 220.569 55.6936 223.649C40.6286 243.129 18.5086 267.484 3.69365 287.149C1.89365 289.534 0.313649 293.684 0.693649 296.649C0.993649 298.974 3.59865 301.599 5.69365 302.649C23.2936 311.449 58.6236 310.784 65.6936 329.149C80.1936 366.809 39.7736 434.514 67.6936 463.649C116.504 514.589 213.314 551.764 283.694 556.649C335.194 560.224 395.069 510.719 442.194 489.649C444.904 488.439 448.629 485.564 449.194 482.649C449.729 479.884 447.524 475.734 445.194 474.149C443.084 472.714 439.059 473.199 436.694 474.149C393.429 491.569 293.694 535.149 293.694 535.149V329.649C293.694 329.649 321.199 391.884 345.694 392.649C391.159 394.064 486.194 335.649 486.194 335.649C486.194 335.649 490.044 416.224 487.694 450.649C487.414 454.779 479.629 456.494 477.694 460.149C476.634 462.154 477.264 465.884 478.694 467.649C480.219 469.534 483.794 470.984 486.194 470.649C490.719 470.019 496.359 467.129 500.194 464.649C501.664 463.699 503.154 461.399 503.194 459.649C504.059 420.509 490.454 366.169 503.194 329.149C508.854 312.704 540.639 313.429 556.194 305.649C560.219 303.639 565.589 300.319 568.194 296.649C569.334 295.039 568.374 291.734 567.194 290.149C549.924 266.934 523.244 238.719 507.194 214.649C505.629 212.304 509.484 208.389 511.194 206.149C527.829 184.334 552.194 156.934 568.194 134.649C569.344 133.044 568.989 128.964 567.194 128.149C518.204 105.934 450.639 81.464 401.694 59.149C399.069 57.954 397.679 53.494 397.194 50.649C395.099 38.319 395.429 21.454 393.194 9.14902C392.689 6.36402 390.709 2.45402 388.194 1.14902ZM276.694 331.149C277.139 392.349 275.194 535.149 275.194 535.149C275.194 535.149 125.189 497.244 81.1936 451.649C57.0286 426.604 82.6936 335.649 82.6936 335.649C82.6936 335.649 172.034 374.074 210.694 389.649C214.544 391.199 221.189 395.509 224.194 392.649C241.599 376.074 258.089 347.929 273.694 329.649C274.349 328.884 276.689 330.144 276.694 331.149ZM545.694 288.149C546.599 289.429 545.624 292.509 544.194 293.149C487.669 318.534 411.394 350.329 354.194 374.149C352.949 374.669 350.569 375.174 349.694 374.149C333.449 355.149 312.654 329.039 298.194 308.649C297.289 307.374 298.359 304.464 299.694 303.649C304.189 300.904 311.199 295.984 316.194 297.649C322.154 299.634 325.109 309.359 329.694 313.649C332.249 316.039 336.244 319.064 339.694 319.649C347.239 320.924 357.599 320.584 365.194 319.649C367.594 319.354 370.484 317.359 372.194 315.649C375.374 312.469 379.114 307.639 381.194 303.649C382.774 300.614 384.094 296.069 384.194 292.649C384.394 285.874 376.524 273.859 382.194 270.149C411.599 250.914 456.429 234.974 489.694 223.649C493.079 222.494 497.349 227.449 499.694 230.149C514.254 246.919 532.879 270.009 545.694 288.149ZM23.1936 288.149C37.2586 269.064 56.6486 244.049 72.1936 226.149C73.6536 224.464 77.1236 222.824 79.1936 223.649C137.204 246.734 213.629 279.819 270.694 305.149C271.654 305.574 271.314 307.799 270.694 308.649C256.189 328.519 236.679 354.949 220.694 373.649C219.519 375.024 216.364 374.834 214.694 374.149C156.929 350.459 80.1487 318.229 23.1936 292.649C21.9636 292.094 22.3936 289.234 23.1936 288.149ZM471.694 213.149C471.694 213.149 428.959 233.479 410.194 241.149C405.044 243.254 392.194 245.649 392.194 245.649C392.194 245.649 412.389 232.334 419.194 224.649C425.384 217.654 425.569 199.649 434.694 197.649C446.449 195.074 471.694 213.149 471.694 213.149ZM184.694 179.149C187.059 181.729 187.899 187.359 186.694 190.649C184.359 197.019 177.079 203.269 173.694 209.149C168.504 218.159 168.574 239.539 158.194 240.149C138.274 241.319 97.1936 213.649 97.1936 213.649C97.1936 213.649 99.2386 210.299 100.694 209.649C122.929 199.734 152.809 186.959 175.694 178.649C178.234 177.724 182.869 177.154 184.694 179.149ZM390.694 138.649L395.194 153.149C395.194 153.149 389.774 152.509 389.194 150.649C388.119 147.184 390.694 138.649 390.694 138.649ZM401.694 125.649C401.694 125.649 409.954 131.294 410.694 135.149C411.524 139.484 406.194 149.149 406.194 149.149L401.694 125.649ZM400.194 79.149C400.119 78.279 400.834 76.809 401.694 76.649C403.634 76.284 406.364 76.904 408.194 77.649C449.619 94.479 504.824 117.019 545.694 135.149C546.654 135.574 546.334 137.819 545.694 138.649C530.449 158.399 516.534 194.329 493.194 203.149C476.149 209.589 451.739 190.619 437.194 179.649C432.519 176.119 437.124 165.934 436.194 160.149C435.014 152.824 432.719 143.129 430.194 136.149C427.594 128.959 423.294 119.604 419.194 113.149C415.134 106.764 406.884 100.254 403.194 93.649C401.029 89.769 400.584 83.574 400.194 79.149ZM207.694 64.149C202.329 82.554 190.779 105.664 185.694 124.149C182.929 134.194 190.044 152.419 181.694 158.649C155.364 178.299 111.529 189.534 81.1936 202.149C79.3736 202.909 76.0236 204.604 74.6936 203.149C57.6986 184.569 36.1636 158.604 22.1936 137.649C20.9586 135.794 25.6386 133.519 27.6936 132.649C80.3587 110.369 150.749 80.989 204.194 60.649C205.584 60.119 208.109 62.724 207.694 64.149ZM257.694 36.649C257.694 36.649 262.384 40.089 263.694 42.149C270.239 52.474 273.709 70.594 283.694 77.649C290.109 82.179 301.849 74.944 309.694 74.649C317.944 74.339 329.004 74.614 337.194 75.649C343.329 76.424 351.444 78.374 357.194 80.649C364.434 83.509 373.829 88.169 380.194 92.649C386.094 96.804 392.924 103.734 397.694 109.149C398.609 110.189 399.674 112.669 398.694 113.649C396.084 116.259 390.599 116.879 387.694 119.149C385.659 120.739 383.799 123.819 382.694 126.149C381.069 129.579 379.064 134.374 378.694 138.149C378.149 143.679 377.779 151.434 379.694 156.649C380.729 159.464 384.884 161.604 387.694 162.649C391.529 164.079 397.104 164.839 401.194 164.649C403.754 164.529 407.104 163.134 409.194 161.649C411.879 159.744 413.899 155.379 416.694 153.649C417.549 153.119 419.539 154.154 419.694 155.149C421.109 164.209 422.104 176.489 421.694 185.649C421.499 190.014 419.534 195.689 417.694 199.649C415.589 204.179 412.009 209.914 408.694 213.649C404.884 217.944 399.299 223.519 394.194 226.149C384.239 231.279 370.284 237.564 359.194 239.149C350.794 240.349 339.664 235.644 331.194 235.149C324.149 234.739 314.654 234.979 307.694 236.149C298.509 237.694 286.484 241.074 277.694 244.149C274.394 245.304 269.774 247.339 267.694 250.149C266.354 251.959 266.654 255.654 267.694 257.649C268.694 259.569 271.554 261.974 273.694 261.649C285.999 259.779 301.449 252.874 313.694 250.649C319.744 249.549 328.119 249.704 334.194 250.649C339.819 251.524 347.269 253.799 352.194 256.649C356.049 258.879 360.274 263.409 362.694 267.149C365.329 271.219 367.859 277.374 368.694 282.149C369.394 286.149 369.449 291.989 367.694 295.649C365.769 299.664 361.139 304.079 357.194 306.149C354.669 307.474 350.474 306.784 347.694 306.149C345.079 305.549 341.514 304.119 339.694 302.149C335.794 297.934 332.889 290.544 329.194 286.149C327.264 283.854 324.109 280.859 321.194 280.149C317.539 279.259 312.249 279.924 308.694 281.149C303.364 282.989 297.414 288.024 292.194 290.149C289.224 291.359 284.699 293.264 281.694 292.149C249.129 280.039 202.659 267.929 175.194 246.649C167.949 241.034 181.784 226.184 186.194 218.149C190.264 210.734 201.359 203.909 203.194 195.649C204.994 187.549 198.134 176.894 197.194 168.649C196.324 161.049 195.909 150.689 197.194 143.149C199.239 131.164 203.489 115.359 208.194 104.149C215.699 86.274 237.694 46.649 237.694 46.649C237.694 46.649 239.904 54.299 239.694 57.649C238.994 68.829 234.439 83.449 234.694 94.649C234.759 97.414 237.984 101.089 240.694 101.649C243.454 102.219 248.479 100.374 249.194 97.649C253.869 79.774 257.694 36.649 257.694 36.649ZM376.694 26.649C377.919 25.629 380.454 28.574 380.694 30.149C382.769 43.834 384.194 76.149 384.194 76.149L344.194 60.649C344.194 60.649 365.864 35.699 376.694 26.649Z" fill="black" stroke="black" stroke-linejoin="round"/>
</svg>
