<?xml version="1.0" encoding="UTF-8" standalone="no"?><svg xmlns="http://www.w3.org/2000/svg" version="1.1" width="2048" height="2048" viewBox="0 0 4096 4096">
<rect width="4096" height="4096" fill="#FFFFFF"/>
<g id="color_0" fill="#000000" stroke="#000000" stroke-width="2.0" stroke-linejoin="round" vector-effect="non-scaling-stroke">
<path d="M1152.00,2104.00 L1152.00,2133.00 L1176.00,2177.00 L1204.00,2199.00 L1225.00,2197.00 L1227.00,2166.00 L1203.00,2122.00 L1173.00,2100.00 L1152.00,2104.00 Z M1164.00,2052.00 L1126.00,2066.00 L1084.00,2104.00 L1062.00,2148.00 L1054.00,2201.00 L1084.00,2229.00 L1122.00,2249.00 L1160.00,2257.00 L1199.00,2255.00 L1243.00,2239.00 L1285.00,2201.00 L1309.00,2159.00 L1315.00,2122.00 L1301.00,2100.00 L1245.00,2062.00 L1209.00,2052.00 L1164.00,2052.00 Z M1172.00,2089.00 L1223.00,2095.00 L1272.00,2130.00 L1270.00,2149.00 L1250.00,2181.00 L1219.00,2206.00 L1187.00,2218.00 L1130.00,2210.00 L1095.00,2187.00 L1111.00,2132.00 L1144.00,2099.00 L1172.00,2089.00 Z M1382.00,1932.00 L1376.00,1938.00 L1376.00,1957.00 L1394.00,1995.00 L1422.00,2017.00 L1439.00,2017.00 L1443.00,2002.00 L1427.00,1962.00 L1407.00,1940.00 L1382.00,1932.00 Z M670.00,1810.00 L664.00,1826.00 L660.00,1906.00 L664.00,2043.00 L686.00,2209.00 L718.00,2349.00 L764.00,2489.00 L822.00,2627.00 L898.00,2769.00 L974.00,2883.00 L1070.00,3001.00 L1166.00,3099.00 L1262.00,3181.00 L1360.00,3251.00 L1496.00,3331.00 L1590.00,3375.00 L1762.00,3437.00 L1884.00,3467.00 L2094.00,3491.00 L2241.00,3487.00 L2347.00,3473.00 L2447.00,3449.00 L2569.00,3407.00 L2647.00,3371.00 L2769.00,3297.00 L2843.00,3239.00 L2949.00,3131.00 L3037.00,3009.00 L3075.00,2941.00 L3107.00,2864.00 L3201.00,2769.00 L3279.00,2665.00 L3331.00,2577.00 L3369.00,2493.00 L3419.00,2321.00 L3435.00,2189.00 L3433.00,2078.00 L3415.00,1954.00 L3385.00,1846.00 L3333.00,1730.00 L3263.00,1624.00 L3189.00,1554.00 L3117.00,1524.00 L3058.00,1524.00 L3014.00,1540.00 L2984.00,1562.00 L2948.00,1616.00 L2940.00,1644.00 L2940.00,1689.00 L2948.00,1721.00 L2970.00,1765.00 L3080.00,1884.00 L3122.00,1948.00 L3148.00,2004.00 L3168.00,2070.00 L3180.00,2146.00 L3178.00,2243.00 L3160.00,2339.00 L3125.00,2430.00 L3107.00,2358.00 L3057.00,2226.00 L2993.00,2100.00 L2937.00,2006.00 L2779.00,1784.00 L2727.00,1736.00 L2683.00,1716.00 L2636.00,1714.00 L2588.00,1734.00 L2556.00,1770.00 L2544.00,1800.00 L2542.00,1825.00 L2504.00,1828.00 L2468.00,1844.00 L2438.00,1876.00 L2424.00,1908.00 L2420.00,1971.00 L2428.00,2013.00 L2470.00,2109.00 L2526.00,2203.00 L2445.00,2298.00 L2385.00,2336.00 L2269.00,2384.00 L2161.00,2402.00 L2070.00,2400.00 L2019.00,2389.00 L2021.00,2194.00 L2027.00,2138.00 L2045.00,2066.00 L2071.00,2012.00 L2109.00,1955.00 L2119.00,1927.00 L2123.00,1860.00 L2109.00,1816.00 L2073.00,1776.00 L2033.00,1758.00 L1992.00,1756.00 L1932.00,1778.00 L1878.00,1818.00 L1828.00,1872.00 L1784.00,1942.00 L1754.00,2006.00 L1721.00,1889.00 L1713.00,1772.00 L1723.00,1732.00 L1755.00,1667.00 L1763.00,1625.00 L1761.00,1590.00 L1751.00,1558.00 L1731.00,1530.00 L1687.00,1502.00 L1644.00,1496.00 L1608.00,1504.00 L1576.00,1522.00 L1528.00,1578.00 L1496.00,1646.00 L1476.00,1724.00 L1468.00,1794.00 L1467.00,1884.00 L1421.00,1850.00 L1324.00,1812.00 L1157.00,1586.00 L1125.00,1550.00 L1113.00,1546.00 L1094.00,1552.00 L1078.00,1578.00 L1010.00,1859.00 L929.00,1916.00 L912.00,1916.00 L709.00,1796.00 L688.00,1796.00 L670.00,1810.00 Z M1394.00,1919.00 L1411.00,1919.00 L1440.00,1942.00 L1452.00,1970.00 L1452.00,2005.00 L1439.00,2022.00 L1419.00,2032.00 L1400.00,2032.00 L1391.00,2025.00 L1371.00,1973.00 L1371.00,1938.00 L1394.00,1919.00 Z M2518.00,1887.00 L2550.00,1890.00 L2588.00,1983.00 L2666.00,2110.00 L2655.00,2122.00 L2581.00,2160.00 L2571.00,2155.00 L2517.00,2065.00 L2483.00,1981.00 L2479.00,1940.00 L2485.00,1918.00 L2518.00,1887.00 Z M1122.00,1643.00 L1158.00,1684.00 L1241.00,1804.00 L1168.00,1806.00 L1079.00,1827.00 L1122.00,1643.00 Z M3346.00,1932.00 L3368.00,2054.00 L3372.00,2197.00 L3360.00,2297.00 L3328.00,2425.00 L3296.00,2505.00 L3230.00,2625.00 L3152.00,2729.00 L3060.00,2824.00 L2996.00,2955.00 L2928.00,3057.00 L2874.00,3121.00 L2785.00,3206.00 L2691.00,3274.00 L2605.00,3322.00 L2507.00,3364.00 L2399.00,3398.00 L2283.00,3420.00 L2191.00,3428.00 L2084.00,3428.00 L1908.00,3408.00 L1776.00,3376.00 L1656.00,3334.00 L1496.00,3260.00 L1422.00,3216.00 L1298.00,3128.00 L1176.00,3022.00 L1079.00,2915.00 L985.00,2789.00 L925.00,2691.00 L861.00,2563.00 L807.00,2425.00 L763.00,2273.00 L737.00,2141.00 L723.00,2005.00 L726.00,1958.00 L810.00,2137.00 L824.00,2145.00 L841.00,2145.00 L859.00,2131.00 L861.00,2110.00 L758.00,1893.00 L906.00,1981.00 L931.00,1989.00 L1048.00,1905.00 L1144.00,1869.00 L1194.00,1861.00 L1257.00,1861.00 L1301.00,1867.00 L1359.00,1885.00 L1362.00,1891.00 L1336.00,1924.00 L1332.00,1961.00 L1340.00,1999.00 L1364.00,2051.00 L1392.00,2069.00 L1425.00,2069.00 L1451.00,2061.00 L1481.00,2035.00 L1489.00,2017.00 L1493.00,1977.00 L1546.00,2038.00 L1578.00,2104.00 L1586.00,2187.00 L1566.00,2281.00 L1642.00,2343.00 L1581.00,2414.00 L1502.00,2466.00 L1496.00,2478.00 L1498.00,2503.00 L1516.00,2517.00 L1535.00,2517.00 L1587.00,2487.00 L1633.00,2451.00 L1679.00,2401.00 L1709.00,2355.00 L1753.00,2251.00 L1779.00,2138.00 L1815.00,2022.00 L1873.00,1916.00 L1916.00,1867.00 L1968.00,1829.00 L2006.00,1817.00 L2037.00,1827.00 L2058.00,1852.00 L2064.00,1893.00 L2054.00,1927.00 L2018.00,1980.00 L1990.00,2038.00 L1966.00,2126.00 L1958.00,2228.00 L1958.00,2397.00 L1946.00,2505.00 L1908.00,2629.00 L1844.00,2734.00 L1844.00,2753.00 L1856.00,2769.00 L1885.00,2773.00 L1901.00,2761.00 L1927.00,2725.00 L1971.00,2641.00 L2001.00,2545.00 L2016.00,2453.00 L2086.00,2463.00 L2221.00,2457.00 L2319.00,2433.00 L2410.00,2391.00 L2396.00,2498.00 L2398.00,2559.00 L2410.00,2627.00 L2454.00,2741.00 L2470.00,2753.00 L2491.00,2753.00 L2505.00,2743.00 L2511.00,2714.00 L2479.00,2641.00 L2459.00,2547.00 L2463.00,2450.00 L2485.00,2372.00 L2525.00,2296.00 L2572.00,2243.00 L2648.00,2191.00 L2731.00,2157.00 L2745.00,2137.00 L2737.00,2104.00 L2643.00,1955.00 L2613.00,1887.00 L2603.00,1818.00 L2607.00,1804.00 L2626.00,1783.00 L2646.00,1775.00 L2675.00,1779.00 L2730.00,1826.00 L2818.00,1942.00 L2940.00,2134.00 L3006.00,2264.00 L3030.00,2326.00 L3066.00,2450.00 L3080.00,2573.00 L3086.00,2587.00 L3102.00,2599.00 L3129.00,2595.00 L3141.00,2579.00 L3141.00,2534.00 L3177.00,2469.00 L3219.00,2359.00 L3239.00,2263.00 L3241.00,2134.00 L3223.00,2032.00 L3193.00,1950.00 L3131.00,1848.00 L3019.00,1723.00 L3003.00,1683.00 L3005.00,1642.00 L3034.00,1601.00 L3072.00,1585.00 L3121.00,1589.00 L3175.00,1623.00 L3222.00,1674.00 L3272.00,1748.00 L3320.00,1850.00 L3346.00,1932.00 Z M1636.00,1559.00 L1677.00,1565.00 L1692.00,1580.00 L1702.00,1610.00 L1696.00,1649.00 L1660.00,1724.00 L1652.00,1772.00 L1652.00,1835.00 L1666.00,1925.00 L1688.00,2007.00 L1724.00,2100.00 L1700.00,2211.00 L1675.00,2282.00 L1631.00,2255.00 L1643.00,2191.00 L1643.00,2136.00 L1633.00,2086.00 L1597.00,2010.00 L1535.00,1939.00 L1529.00,1881.00 L1531.00,1776.00 L1547.00,1690.00 L1583.00,1608.00 L1622.00,1565.00 L1636.00,1559.00 Z M1698.00,970.00 L1696.00,1059.00 L1708.00,1127.00 L1734.00,1199.00 L1784.00,1281.00 L1844.00,1343.00 L1910.00,1389.00 L2000.00,1427.00 L2072.00,1441.00 L2143.00,1443.00 L2207.00,1435.00 L2313.00,1397.00 L2378.00,1443.00 L2448.00,1467.00 L2537.00,1473.00 L2627.00,1455.00 L2709.00,1411.00 L2763.00,1359.00 L2787.00,1321.00 L2803.00,1279.00 L2805.00,1256.00 L2793.00,1240.00 L2778.00,1238.00 L2762.00,1248.00 L2736.00,1313.00 L2697.00,1358.00 L2653.00,1390.00 L2583.00,1418.00 L2529.00,1426.00 L2452.00,1420.00 L2390.00,1396.00 L2357.00,1371.00 L2377.00,1361.00 L2424.00,1375.00 L2471.00,1375.00 L2513.00,1365.00 L2557.00,1343.00 L2593.00,1311.00 L2623.00,1267.00 L2663.00,1156.00 L2683.00,1122.00 L2718.00,1087.00 L2770.00,1061.00 L2814.00,1051.00 L2889.00,1059.00 L2955.00,1091.00 L3004.00,1133.00 L3023.00,1131.00 L3037.00,1113.00 L3029.00,1092.00 L2995.00,1060.00 L2957.00,1036.00 L2899.00,1012.00 L2857.00,1004.00 L2808.00,1004.00 L2744.00,1018.00 L2682.00,1054.00 L2646.00,1090.00 L2616.00,1142.00 L2580.00,1243.00 L2545.00,1290.00 L2519.00,1310.00 L2461.00,1328.00 L2416.00,1324.00 L2453.00,1281.00 L2493.00,1219.00 L2531.00,1113.00 L2541.00,1014.00 L2521.00,896.00 L2473.00,794.00 L2427.00,734.00 L2393.00,702.00 L2341.00,664.00 L2263.00,626.00 L2163.00,604.00 L2076.00,604.00 L2004.00,618.00 L1938.00,642.00 L1856.00,692.00 L1796.00,750.00 L1750.00,814.00 L1716.00,890.00 L1698.00,970.00 Z M2338.00,1304.00 L2335.00,1310.00 L2323.00,1309.00 L2338.00,1304.00 Z M1871.00,1270.00 L1971.00,1303.00 L2044.00,1371.00 L2006.00,1364.00 L1934.00,1330.00 L1869.00,1279.00 L1871.00,1270.00 Z M2438.00,1188.00 L2403.00,1236.00 L2333.00,1258.00 L2262.00,1266.00 L2221.00,1231.00 L2331.00,1219.00 L2438.00,1188.00 Z M1876.00,1179.00 L1913.00,1238.00 L1869.00,1217.00 L1876.00,1179.00 Z M2472.00,1080.00 L2464.00,1117.00 L2443.00,1132.00 L2377.00,1158.00 L2303.00,1176.00 L2174.00,1182.00 L2131.00,1135.00 L2257.00,1135.00 L2317.00,1129.00 L2399.00,1111.00 L2472.00,1080.00 Z M1816.00,1061.00 L1842.00,1112.00 L1821.00,1218.00 L1797.00,1179.00 L1801.00,1118.00 L1816.00,1061.00 Z M2364.00,1070.00 L2287.00,1083.00 L2326.00,1027.00 L2334.00,1030.00 L2364.00,1070.00 Z M2374.00,937.00 L2418.00,986.00 L2448.00,1036.00 L2445.00,1042.00 L2410.00,1054.00 L2381.00,1010.00 L2355.00,983.00 L2374.00,937.00 Z M2048.00,899.00 L2131.00,909.00 L2175.00,923.00 L2210.00,942.00 L2162.00,1011.00 L2093.00,1074.00 L2071.00,1045.00 L2025.00,939.00 L2025.00,924.00 L2048.00,899.00 Z M1781.00,899.00 L1796.00,991.00 L1762.00,1076.00 L1759.00,980.00 L1781.00,899.00 Z M2097.00,854.00 L2144.00,821.00 L2163.00,819.00 L2229.00,841.00 L2254.00,857.00 L2240.00,891.00 L2230.00,898.00 L2159.00,868.00 L2097.00,854.00 Z M2406.00,811.00 L2436.00,854.00 L2458.00,906.00 L2475.00,986.00 L2435.00,928.00 L2393.00,887.00 L2406.00,811.00 Z M1852.00,781.00 L1862.00,871.00 L1882.00,963.00 L1914.00,1049.00 L1954.00,1129.00 L2006.00,1207.00 L2048.00,1257.00 L2110.00,1317.00 L2191.00,1372.00 L2144.00,1376.00 L2072.00,1332.00 L1985.00,1249.00 L1915.00,1153.00 L1865.00,1051.00 L1831.00,925.00 L1825.00,818.00 L1852.00,781.00 Z M2274.00,770.00 L2267.00,806.00 L2219.00,787.00 L2250.00,773.00 L2274.00,770.00 Z M2361.00,759.00 L2360.00,805.00 L2348.00,871.00 L2326.00,933.00 L2294.00,993.00 L2246.00,1059.00 L2219.00,1086.00 L2156.00,1088.00 L2217.00,1021.00 L2263.00,953.00 L2309.00,845.00 L2323.00,760.00 L2361.00,759.00 Z M1934.00,715.00 L1942.00,714.00 L1942.00,803.00 L1960.00,893.00 L1988.00,977.00 L2026.00,1061.00 L2074.00,1139.00 L2146.00,1229.00 L2214.00,1293.00 L2283.00,1337.00 L2283.00,1342.00 L2258.00,1352.00 L2216.00,1334.00 L2134.00,1274.00 L2059.00,1195.00 L1989.00,1093.00 L1945.00,1001.00 L1905.00,845.00 L1903.00,736.00 L1934.00,715.00 Z M2300.00,714.00 L2220.00,732.00 L2142.00,766.00 L2074.00,810.00 L2007.00,874.00 L2003.00,871.00 L1995.00,816.00 L2090.00,743.00 L2170.00,707.00 L2255.00,691.00 L2300.00,714.00 Z M2144.00,666.00 L2080.00,694.00 L2028.00,726.00 L1991.00,758.00 L1987.00,755.00 L1990.00,691.00 L2048.00,671.00 L2144.00,666.00 Z"/>
</g>
</svg>