<?xml version="1.0" encoding="UTF-8" standalone="no"?>
<!-- Created with Inkscape (http://www.inkscape.org/) -->

<svg
   width="347.37131mm"
   height="394.95609mm"
   viewBox="0 0 347.37131 394.95609"
   version="1.1"
   id="svg1"
   xml:space="preserve"
   xmlns="http://www.w3.org/2000/svg"
   xmlns:svg="http://www.w3.org/2000/svg"><defs
     id="defs1" /><g
     id="layer1"
     transform="translate(-1116.8023,34.286236)"><path
       style="fill:#020302;stroke:none;stroke-width:2;stroke-dasharray:none"
       d="m 1240.3198,-34.075859 c -2.4118,0.508786 -4.3934,2.342298 -6.35,3.734914 -3.4448,2.451981 -6.9613,4.72484 -10.3187,7.308564 -13.6775,10.525843 -26.3612,21.8777975 -37.9872,34.656411 -49.9776,54.932432 -80.0757,132.99455 -64.9315,207.3486 3.6188,17.76723 9.5349,35.43676 18.368,51.32917 8.4453,15.19477 18.9068,29.15497 31.1155,41.53467 6.8342,6.92987 14.4959,13.16935 22.4789,18.7205 48.5724,33.77542 111.3845,35.87894 167.2167,22.25829 8.6496,-2.11014 17.2595,-4.76776 25.6646,-7.69736 3.4328,-1.19654 7.7118,-2.4047 9.3238,-6.02444 1.2422,-2.78953 0.2622,-5.21473 -0.5813,-7.9375 -0.8839,-2.85354 -1.6725,-5.79503 -2.2275,-8.73125 -1.5865,-8.39354 -1.1975,-17.17692 1.1207,-25.4 0.6457,-2.29023 1.0893,-5.03826 2.3322,-7.09414 1.0575,-1.74899 4.3457,-2.26155 6.1717,-2.87185 4.5506,-1.52097 9.0096,-3.68427 13.2291,-5.96081 12.883,-6.95068 24.4939,-16.05393 33.1308,-27.99403 23.6798,-32.73582 17.7909,-77.29689 4.3226,-112.97708 -2.793,-7.39935 -6.4753,-14.59381 -10.4289,-21.43125 -1.8205,-3.14835 -4.6803,-6.05169 -5.8401,-9.52499 -1.1254,-3.37024 -0.7721,-8.07803 -1.0407,-11.641668 -2.1019,-27.884182 -4.9038,-55.717333 -6.8785,-83.60833 -0.4992,-7.0511195 -0.8008,-14.1335035 -1.5388,-21.1666657 -0.3446,-3.2832943 -0.1809,-6.8497753 -2.5924,-9.4545903 -4.044,-4.368176 -9.6752,-1.604811 -13.1027,1.783677 -9.3613,9.2546667 -19.1068,18.1835785 -28.8396,27.043051 -10.3317,9.404593 -20.4535,19.046704 -30.6916,28.553294 -3.0335,2.816689 -5.9012,5.833042 -8.9959,8.579483 -1.1252,0.99855 -2.2935,2.587794 -3.7042,3.16447 -1.8695,0.764262 -5.3978,-0.22153 -7.4083,-0.36687 -5.4124,-0.391255 -10.9751,-0.554682 -16.4042,-0.279828 -5.3679,0.271786 -10.816,0.670986 -16.1396,1.461474 -1.7657,0.262193 -4.7736,1.272241 -6.1602,-0.234514 -1.6279,-1.768917 -2.6249,-4.66312 -3.6954,-6.803816 -2.0444,-4.088057 -4.201,-8.148597 -6.3727,-12.170832 -8.6823,-16.081027 -16.5921,-32.5803425 -25.2313,-48.683332 -1.7908,-3.338039 -3.607,-6.668843 -5.3054,-10.054165 -2.4613,-4.905999 -5.0736,-10.766817 -11.7079,-9.367257 m 1.5875,22.596422 7.2064,13.7583325 18.2753,35.1895825 6.1987,11.641666 4.0384,8.466666 c -6.0272,0.417126 -12.6755,3.522815 -18.2563,5.716188 -15.9178,6.256143 -30.523,14.883393 -43.6562,25.835304 -3.0994,2.5846 -6.1454,5.27756 -8.9952,8.1362 -1.392,1.3963 -3.1108,2.943808 -3.9462,4.762308 -1.9193,4.17739 1.1387,9.3513 5.533,10.17638 6.0013,1.12674 11.4345,-7.1891 15.3459,-10.65226 10.7992,-9.561588 23.4535,-17.394219 36.7771,-22.910032 50.7909,-21.02701 114.9848,-15.971666 153.3437,26.645622 6.3494,7.05432 13.2141,15.21771 17.0479,23.99237 -3.5175,-0.86607 -6.9137,-1.74111 -10.5833,-1.19612 -14.314,2.12591 -20.68,18.33622 -22.732,30.82945 -0.5998,3.65139 -0.8159,7.41705 -0.8159,11.1125 0,1.66611 -0.1658,3.47165 0.5525,5.02708 1.4688,3.18069 5.3454,5.55577 8.1787,7.40472 9.3739,6.1171 22.2336,6.63454 30.691,-1.34191 4.408,-4.15734 6.691,-9.22906 8.7319,-14.79406 h 0.2646 c 0.413,4.3635 1.6179,8.6394 2.3023,12.96459 1.2448,7.86631 2.0878,16.11384 1.9261,24.07708 -0.3688,18.16549 -7.3565,35.75288 -19.8748,48.943 -5.1162,5.39076 -11.5731,9.99648 -17.9557,13.75695 -14.7828,8.70964 -31.9319,13.06341 -48.9479,14.25775 -5.8493,0.41057 -15.5245,-1.34617 -17.183,6.38604 -0.9114,4.24932 2.7819,8.21226 6.8643,8.66863 8.8175,0.98572 17.7492,-1.20833 26.4583,-2.05404 -1.0404,6.84121 -2.5182,13.38513 -2.3763,20.37291 0.1072,5.27907 1.5268,10.38884 1.8471,15.61042 -13.0925,1.73584 -26.9326,0.64505 -39.952,-1.2382 -21.0087,-3.03887 -41.4913,-9.5418 -60.0605,-19.89859 -53.9123,-30.06916 -87.3648,-89.66733 -89.4184,-150.84237 -1.3402,-39.92179 8.9939,-79.584348 25.095,-115.887492 8.0776,-18.212809 17.7009,-35.6191105 27.5464,-52.916665 h 0.5291 m 170.6563,15.6104165 1.5515,18.7854155 5.5922,66.674997 c -7.3224,-5.787793 -14.1001,-11.95095 -22.0179,-16.970281 -12.5659,-7.965922 -26.2093,-12.674161 -40.4237,-16.631801 4.1425,-5.546011 10.2849,-10.150058 15.3458,-14.852678 7.8945,-7.335598 15.658,-14.814695 23.5479,-22.152942 5.2615,-4.893661 11.0522,-9.5265185 15.875,-14.8527105 h 0.5292 M 1315.1969,129.92416 c -11.8245,1.359 -22.7146,6.23916 -31.2208,14.70124 -2.6193,2.60572 -6.6622,6.1203 -7.027,10.05349 -0.4531,4.88571 3.3947,11.30144 5.7817,15.34583 9.9637,16.88172 28.2834,25.15583 47.5474,22.93206 9.2036,-1.06247 18.569,-4.88966 25.9291,-10.5031 2.4369,-1.85855 5.8799,-4.08787 6.9165,-7.13729 0.6994,-2.05782 -0.044,-4.3739 -0.6367,-6.35 -0.9601,-3.20123 -1.909,-6.39609 -3.0899,-9.525 -6.937,-18.3807 -23.9374,-31.84602 -44.2003,-29.51723 m 106.8917,8.44287 c 6.1274,-0.72848 11.6707,5.51888 13.5637,10.75561 0.9579,2.64951 0.8127,5.44553 0.5118,8.20208 -0.8818,8.07577 -5.2266,18.30844 -14.3401,19.32782 -3.9761,0.44474 -7.7886,-1.02513 -11.1125,-3.11492 -1.0446,-0.65674 -2.4904,-1.37815 -3.1063,-2.49572 -1.1681,-2.11976 -0.3036,-6.37503 -0.069,-8.6901 0.8514,-8.38918 4.3508,-22.77196 14.5521,-23.98477 m -102.3937,1.8494 c 13.2368,-1.10804 24.2624,9.8213 29.0652,21.07704 1.0288,2.41116 1.9047,4.90222 2.673,7.40833 0.2804,0.91487 0.7976,2.15678 0.4944,3.1168 -0.6015,1.90473 -3.9047,3.54646 -5.5097,4.52983 -6.1431,3.76362 -12.985,5.6856 -20.1084,6.3188 -13.0986,1.16427 -26.855,-5.20453 -33.5956,-16.61126 -1.2688,-2.14716 -2.3717,-4.33785 -3.3856,-6.61458 -0.4492,-1.00866 -1.163,-2.29508 -0.9449,-3.43959 0.4514,-2.3692 4.3859,-5.20281 6.1761,-6.66125 7.5724,-6.16891 15.6203,-8.32762 25.1355,-9.12412 m 100.2772,2.77389 c -2.3509,0.71411 -3.4622,3.48125 -4.1383,5.60315 -1.7628,5.53245 -1.7673,12.42363 -0.1836,17.99167 0.7193,2.52923 2.7746,7.218 6.1689,6.13528 2.1974,-0.70096 3.2921,-3.62471 3.9687,-5.60612 1.9013,-5.56787 1.8007,-12.35299 0.2181,-17.99166 -0.7094,-2.52776 -2.6202,-7.1692 -6.0338,-6.13232 m -97.1022,1.3185 c -2.9066,0.73306 -4.4459,4.07665 -5.2764,6.6659 -2.0902,6.51711 -2.0657,13.79141 -0.3064,20.37292 0.8642,3.23303 3.2101,8.35427 7.4348,7.25847 2.8027,-0.72703 4.335,-4.21538 5.0935,-6.72931 1.9431,-6.44046 2.09,-13.94821 0.019,-20.37291 -0.8862,-2.74858 -3.1708,-8.15183 -6.9642,-7.19507 z"
       id="path1" /></g></svg>
